<?xml version="1.0" encoding="UTF-8" standalone="no"?>
<!DOCTYPE svg PUBLIC "-//W3C//DTD SVG 1.1//EN"
 "http://www.w3.org/Graphics/SVG/1.1/DTD/svg11.dtd">
<!-- Generated by graphviz version 2.38.0 (20140413.2041)
 -->
<!-- Title: controllers_diagram Pages: 1 -->
<svg width="576pt" height="516pt"
 viewBox="0.00 0.00 575.50 515.50" xmlns="http://www.w3.org/2000/svg" xmlns:xlink="http://www.w3.org/1999/xlink">
<g id="graph0" class="graph" transform="scale(1 1) rotate(0) translate(211.5 304)">
<title>controllers_diagram</title>
<polygon fill="none" stroke="none" points="-211.5,211.5 -211.5,-304 364,-304 364,211.5 -211.5,211.5"/>
<!-- _diagram_info -->
<g id="node1" class="node"><title>_diagram_info</title>
<text text-anchor="start" x="152" y="-207.6" font-family="Times,serif" font-size="13.00">Controllers diagram</text>
<text text-anchor="start" x="152" y="-193.6" font-family="Times,serif" font-size="13.00">Date: Jun 22 2017 &#45; 14:36</text>
<text text-anchor="start" x="152" y="-179.6" font-family="Times,serif" font-size="13.00">Migration version: 20170622031049</text>
<text text-anchor="start" x="152" y="-165.6" font-family="Times,serif" font-size="13.00">Generated by RailRoady 1.5.3</text>
<text text-anchor="start" x="152" y="-151.6" font-family="Times,serif" font-size="13.00">http://railroady.prestonlee.com</text>
</g>
<!-- StaticPagesController -->
<g id="node2" class="node"><title>StaticPagesController</title>
<path fill="none" stroke="black" d="M-164,-176.5C-164,-176.5 -54,-176.5 -54,-176.5 -48,-176.5 -42,-182.5 -42,-188.5 -42,-188.5 -42,-287.5 -42,-287.5 -42,-293.5 -48,-299.5 -54,-299.5 -54,-299.5 -164,-299.5 -164,-299.5 -170,-299.5 -176,-293.5 -176,-287.5 -176,-287.5 -176,-188.5 -176,-188.5 -176,-182.5 -170,-176.5 -164,-176.5"/>
<text text-anchor="middle" x="-109" y="-284.3" font-family="Times,serif" font-size="14.00">StaticPagesController</text>
<polyline fill="none" stroke="black" points="-176,-276.5 -42,-276.5 "/>
<text text-anchor="start" x="-168" y="-261.3" font-family="Times,serif" font-size="14.00">about</text>
<text text-anchor="start" x="-168" y="-246.3" font-family="Times,serif" font-size="14.00">contact</text>
<text text-anchor="start" x="-168" y="-231.3" font-family="Times,serif" font-size="14.00">home</text>
<polyline fill="none" stroke="black" points="-176,-223.5 -42,-223.5 "/>
<polyline fill="none" stroke="black" points="-176,-199.5 -42,-199.5 "/>
<text text-anchor="start" x="-168" y="-184.3" font-family="Times,serif" font-size="14.00">_layout</text>
</g>
<!-- ApplicationController -->
<g id="node3" class="node"><title>ApplicationController</title>
<path fill="none" stroke="black" d="M236,63C236,63 348,63 348,63 354,63 360,57 360,51 360,51 360,-33 360,-33 360,-39 354,-45 348,-45 348,-45 236,-45 236,-45 230,-45 224,-39 224,-33 224,-33 224,51 224,51 224,57 230,63 236,63"/>
<text text-anchor="middle" x="292" y="-29.8" font-family="Times,serif" font-size="14.00">ApplicationController</text>
<polyline fill="none" stroke="black" points="224,-22 360,-22 "/>
<text text-anchor="start" x="232" y="-6.8" font-family="Times,serif" font-size="14.00">check_url_user</text>
<polyline fill="none" stroke="black" points="224,1 360,1 "/>
<polyline fill="none" stroke="black" points="224,25 360,25 "/>
<text text-anchor="start" x="232" y="40.2" font-family="Times,serif" font-size="14.00">_layout</text>
<text text-anchor="start" x="232" y="55.2" font-family="Times,serif" font-size="14.00">logged_in_user</text>
</g>
<!-- UsersController -->
<g id="node4" class="node"><title>UsersController</title>
<path fill="none" stroke="black" d="M-51.5,143.5C-51.5,143.5 27.5,143.5 27.5,143.5 33.5,143.5 39.5,137.5 39.5,131.5 39.5,131.5 39.5,-117.5 39.5,-117.5 39.5,-123.5 33.5,-129.5 27.5,-129.5 27.5,-129.5 -51.5,-129.5 -51.5,-129.5 -57.5,-129.5 -63.5,-123.5 -63.5,-117.5 -63.5,-117.5 -63.5,131.5 -63.5,131.5 -63.5,137.5 -57.5,143.5 -51.5,143.5"/>
<text text-anchor="middle" x="-12" y="-114.3" font-family="Times,serif" font-size="14.00">UsersController</text>
<polyline fill="none" stroke="black" points="-63.5,-106.5 39.5,-106.5 "/>
<text text-anchor="start" x="-55.5" y="-91.3" font-family="Times,serif" font-size="14.00">create</text>
<text text-anchor="start" x="-55.5" y="-76.3" font-family="Times,serif" font-size="14.00">destroy</text>
<text text-anchor="start" x="-55.5" y="-61.3" font-family="Times,serif" font-size="14.00">edit</text>
<text text-anchor="start" x="-55.5" y="-46.3" font-family="Times,serif" font-size="14.00">followers</text>
<text text-anchor="start" x="-55.5" y="-31.3" font-family="Times,serif" font-size="14.00">following</text>
<text text-anchor="start" x="-55.5" y="-16.3" font-family="Times,serif" font-size="14.00">index</text>
<text text-anchor="start" x="-55.5" y="-1.3" font-family="Times,serif" font-size="14.00">new</text>
<text text-anchor="start" x="-55.5" y="13.7" font-family="Times,serif" font-size="14.00">show</text>
<text text-anchor="start" x="-55.5" y="28.7" font-family="Times,serif" font-size="14.00">update</text>
<polyline fill="none" stroke="black" points="-63.5,36.5 39.5,36.5 "/>
<polyline fill="none" stroke="black" points="-63.5,60.5 39.5,60.5 "/>
<text text-anchor="start" x="-55.5" y="75.7" font-family="Times,serif" font-size="14.00">_layout</text>
<text text-anchor="start" x="-55.5" y="90.7" font-family="Times,serif" font-size="14.00">admin_user</text>
<text text-anchor="start" x="-55.5" y="105.7" font-family="Times,serif" font-size="14.00">correct_user</text>
<text text-anchor="start" x="-55.5" y="120.7" font-family="Times,serif" font-size="14.00">load_user</text>
<text text-anchor="start" x="-55.5" y="135.7" font-family="Times,serif" font-size="14.00">user_params</text>
</g>
<!-- SessionsController -->
<g id="node5" class="node"><title>SessionsController</title>
<path fill="none" stroke="black" d="M-195.5,-0.5C-195.5,-0.5 -100.5,-0.5 -100.5,-0.5 -94.5,-0.5 -88.5,-6.5 -88.5,-12.5 -88.5,-12.5 -88.5,-111.5 -88.5,-111.5 -88.5,-117.5 -94.5,-123.5 -100.5,-123.5 -100.5,-123.5 -195.5,-123.5 -195.5,-123.5 -201.5,-123.5 -207.5,-117.5 -207.5,-111.5 -207.5,-111.5 -207.5,-12.5 -207.5,-12.5 -207.5,-6.5 -201.5,-0.5 -195.5,-0.5"/>
<text text-anchor="middle" x="-148" y="-108.3" font-family="Times,serif" font-size="14.00">SessionsController</text>
<polyline fill="none" stroke="black" points="-207.5,-100.5 -88.5,-100.5 "/>
<text text-anchor="start" x="-199.5" y="-85.3" font-family="Times,serif" font-size="14.00">create</text>
<text text-anchor="start" x="-199.5" y="-70.3" font-family="Times,serif" font-size="14.00">destroy</text>
<text text-anchor="start" x="-199.5" y="-55.3" font-family="Times,serif" font-size="14.00">new</text>
<polyline fill="none" stroke="black" points="-207.5,-47.5 -88.5,-47.5 "/>
<polyline fill="none" stroke="black" points="-207.5,-23.5 -88.5,-23.5 "/>
<text text-anchor="start" x="-199.5" y="-8.3" font-family="Times,serif" font-size="14.00">_layout</text>
</g>
<!-- NewspostsController -->
<g id="node6" class="node"><title>NewspostsController</title>
<path fill="none" stroke="black" d="M76.5,64C76.5,64 183.5,64 183.5,64 189.5,64 195.5,58 195.5,52 195.5,52 195.5,-92 195.5,-92 195.5,-98 189.5,-104 183.5,-104 183.5,-104 76.5,-104 76.5,-104 70.5,-104 64.5,-98 64.5,-92 64.5,-92 64.5,52 64.5,52 64.5,58 70.5,64 76.5,64"/>
<text text-anchor="middle" x="130" y="-88.8" font-family="Times,serif" font-size="14.00">NewspostsController</text>
<polyline fill="none" stroke="black" points="64.5,-81 195.5,-81 "/>
<text text-anchor="start" x="72.5" y="-65.8" font-family="Times,serif" font-size="14.00">create</text>
<text text-anchor="start" x="72.5" y="-50.8" font-family="Times,serif" font-size="14.00">destroy</text>
<text text-anchor="start" x="72.5" y="-35.8" font-family="Times,serif" font-size="14.00">edit</text>
<text text-anchor="start" x="72.5" y="-20.8" font-family="Times,serif" font-size="14.00">update</text>
<polyline fill="none" stroke="black" points="64.5,-13 195.5,-13 "/>
<polyline fill="none" stroke="black" points="64.5,11 195.5,11 "/>
<text text-anchor="start" x="72.5" y="26.2" font-family="Times,serif" font-size="14.00">_layout</text>
<text text-anchor="start" x="72.5" y="41.2" font-family="Times,serif" font-size="14.00">correct_user</text>
<text text-anchor="start" x="72.5" y="56.2" font-family="Times,serif" font-size="14.00">newspost_params</text>
</g>
<!-- RelationshipsController -->
<g id="node7" class="node"><title>RelationshipsController</title>
<path fill="none" stroke="black" d="M76,207C76,207 198,207 198,207 204,207 210,201 210,195 210,195 210,111 210,111 210,105 204,99 198,99 198,99 76,99 76,99 70,99 64,105 64,111 64,111 64,195 64,195 64,201 70,207 76,207"/>
<text text-anchor="middle" x="137" y="114.2" font-family="Times,serif" font-size="14.00">RelationshipsController</text>
<polyline fill="none" stroke="black" points="64,122 210,122 "/>
<text text-anchor="start" x="72" y="137.2" font-family="Times,serif" font-size="14.00">create</text>
<text text-anchor="start" x="72" y="152.2" font-family="Times,serif" font-size="14.00">destroy</text>
<polyline fill="none" stroke="black" points="64,160 210,160 "/>
<polyline fill="none" stroke="black" points="64,184 210,184 "/>
<text text-anchor="start" x="72" y="199.2" font-family="Times,serif" font-size="14.00">_layout</text>
</g>
<!-- CommentsController -->
<g id="node8" class="node"><title>CommentsController</title>
<path fill="none" stroke="black" d="M-4,-161C-4,-161 104,-161 104,-161 110,-161 116,-167 116,-173 116,-173 116,-287 116,-287 116,-293 110,-299 104,-299 104,-299 -4,-299 -4,-299 -10,-299 -16,-293 -16,-287 -16,-287 -16,-173 -16,-173 -16,-167 -10,-161 -4,-161"/>
<text text-anchor="middle" x="50" y="-283.8" font-family="Times,serif" font-size="14.00">CommentsController</text>
<polyline fill="none" stroke="black" points="-16,-276 116,-276 "/>
<text text-anchor="start" x="-8" y="-260.8" font-family="Times,serif" font-size="14.00">create</text>
<text text-anchor="start" x="-8" y="-245.8" font-family="Times,serif" font-size="14.00">destroy</text>
<polyline fill="none" stroke="black" points="-16,-238 116,-238 "/>
<polyline fill="none" stroke="black" points="-16,-214 116,-214 "/>
<text text-anchor="start" x="-8" y="-198.8" font-family="Times,serif" font-size="14.00">_layout</text>
<text text-anchor="start" x="-8" y="-183.8" font-family="Times,serif" font-size="14.00">comment_params</text>
<text text-anchor="start" x="-8" y="-168.8" font-family="Times,serif" font-size="14.00">load_comment</text>
</g>
</g>
</svg>
