<?xml version="1.0" encoding="UTF-8" standalone="no"?>
<!DOCTYPE svg PUBLIC "-//W3C//DTD SVG 1.1//EN"
 "http://www.w3.org/Graphics/SVG/1.1/DTD/svg11.dtd">
<!-- Generated by graphviz version 2.38.0 (20140413.2041)
 -->
<!-- Title: models_diagram Pages: 1 -->
<svg width="713pt" height="507pt"
 viewBox="0.00 0.00 713.34 507.00" xmlns="http://www.w3.org/2000/svg" xmlns:xlink="http://www.w3.org/1999/xlink">
<g id="graph0" class="graph" transform="scale(1 1) rotate(0) translate(4 503)">
<title>models_diagram</title>
<polygon fill="none" stroke="none" points="-4,4 -4,-503 709.343,-503 709.343,4 -4,4"/>
<!-- _diagram_info -->
<g id="node1" class="node"><title>_diagram_info</title>
<text text-anchor="start" x="8" y="-447.6" font-family="Times,serif" font-size="13.00">Models diagram</text>
<text text-anchor="start" x="8" y="-433.6" font-family="Times,serif" font-size="13.00">Date: Jun 22 2017 &#45; 14:36</text>
<text text-anchor="start" x="8" y="-419.6" font-family="Times,serif" font-size="13.00">Migration version: 20170622031049</text>
<text text-anchor="start" x="8" y="-405.6" font-family="Times,serif" font-size="13.00">Generated by RailRoady 1.5.3</text>
<text text-anchor="start" x="8" y="-391.6" font-family="Times,serif" font-size="13.00">http://railroady.prestonlee.com</text>
</g>
<!-- User -->
<g id="node2" class="node"><title>User</title>
<path fill="none" stroke="black" d="M244,-347.5C244,-347.5 380,-347.5 380,-347.5 386,-347.5 392,-353.5 392,-359.5 392,-359.5 392,-486.5 392,-486.5 392,-492.5 386,-498.5 380,-498.5 380,-498.5 244,-498.5 244,-498.5 238,-498.5 232,-492.5 232,-486.5 232,-486.5 232,-359.5 232,-359.5 232,-353.5 238,-347.5 244,-347.5"/>
<text text-anchor="middle" x="312" y="-483.3" font-family="Times,serif" font-size="14.00">User</text>
<polyline fill="none" stroke="black" points="232,-475.5 392,-475.5 "/>
<text text-anchor="start" x="240" y="-460.3" font-family="Times,serif" font-size="14.00">id :INTEGER</text>
<text text-anchor="start" x="240" y="-445.3" font-family="Times,serif" font-size="14.00">name :varchar</text>
<text text-anchor="start" x="240" y="-430.3" font-family="Times,serif" font-size="14.00">email :varchar</text>
<text text-anchor="start" x="240" y="-415.3" font-family="Times,serif" font-size="14.00">created_at :datetime</text>
<text text-anchor="start" x="240" y="-400.3" font-family="Times,serif" font-size="14.00">updated_at :datetime</text>
<text text-anchor="start" x="240" y="-385.3" font-family="Times,serif" font-size="14.00">password_digest :varchar</text>
<text text-anchor="start" x="240" y="-370.3" font-family="Times,serif" font-size="14.00">remember_digest :varchar</text>
<text text-anchor="start" x="240" y="-355.3" font-family="Times,serif" font-size="14.00">is_admin :boolean</text>
</g>
<!-- User&#45;&gt;User -->
<g id="edge4" class="edge"><title>User&#45;&gt;User</title>
<path fill="none" stroke="#4a8db4" d="M402.25,-429.226C407.113,-427.703 410,-425.628 410,-423 410,-420.372 407.113,-418.297 402.25,-416.774"/>
<polygon fill="#4a8db4" stroke="#4a8db4" points="402.153,-429.246 391.45,-426.86 397.256,-430.256 392.36,-431.267 392.36,-431.267 392.36,-431.267 397.256,-430.256 393.269,-435.674 402.153,-429.246 402.153,-429.246"/>
<polygon fill="#4a8db4" stroke="#4a8db4" points="402.153,-416.754 393.269,-410.326 397.256,-415.744 392.36,-414.733 392.36,-414.733 392.36,-414.733 397.256,-415.744 391.45,-419.14 402.153,-416.754 402.153,-416.754"/>
<text text-anchor="middle" x="436.5" y="-419.3" font-family="Times,serif" font-size="14.00">following</text>
</g>
<!-- User&#45;&gt;User -->
<g id="edge5" class="edge"><title>User&#45;&gt;User</title>
<path fill="none" stroke="#b032d0" d="M402.518,-441.749C435.211,-441.684 463,-435.434 463,-423 463,-410.566 435.211,-404.316 402.518,-404.251"/>
<polygon fill="#b032d0" stroke="#b032d0" points="402.238,-441.745 392.318,-437.072 397.239,-441.658 392.24,-441.571 392.24,-441.571 392.24,-441.571 397.239,-441.658 392.162,-446.071 402.238,-441.745 402.238,-441.745"/>
<polygon fill="#b032d0" stroke="#b032d0" points="402.238,-404.255 392.162,-399.929 397.239,-404.342 392.24,-404.429 392.24,-404.429 392.24,-404.429 397.239,-404.342 392.318,-408.928 402.238,-404.255 402.238,-404.255"/>
<text text-anchor="middle" x="489" y="-419.3" font-family="Times,serif" font-size="14.00">followers</text>
</g>
<!-- Comment -->
<g id="node4" class="node"><title>Comment</title>
<path fill="none" stroke="black" d="M235.5,-0.5C235.5,-0.5 342.5,-0.5 342.5,-0.5 348.5,-0.5 354.5,-6.5 354.5,-12.5 354.5,-12.5 354.5,-109.5 354.5,-109.5 354.5,-115.5 348.5,-121.5 342.5,-121.5 342.5,-121.5 235.5,-121.5 235.5,-121.5 229.5,-121.5 223.5,-115.5 223.5,-109.5 223.5,-109.5 223.5,-12.5 223.5,-12.5 223.5,-6.5 229.5,-0.5 235.5,-0.5"/>
<text text-anchor="middle" x="289" y="-106.3" font-family="Times,serif" font-size="14.00">Comment</text>
<polyline fill="none" stroke="black" points="223.5,-98.5 354.5,-98.5 "/>
<text text-anchor="start" x="231.5" y="-83.3" font-family="Times,serif" font-size="14.00">id :INTEGER</text>
<text text-anchor="start" x="231.5" y="-68.3" font-family="Times,serif" font-size="14.00">content :text</text>
<text text-anchor="start" x="231.5" y="-53.3" font-family="Times,serif" font-size="14.00">user_id :integer</text>
<text text-anchor="start" x="231.5" y="-38.3" font-family="Times,serif" font-size="14.00">newspost_id :integer</text>
<text text-anchor="start" x="231.5" y="-23.3" font-family="Times,serif" font-size="14.00">created_at :datetime</text>
<text text-anchor="start" x="231.5" y="-8.3" font-family="Times,serif" font-size="14.00">updated_at :datetime</text>
</g>
<!-- User&#45;&gt;Comment -->
<g id="edge6" class="edge"><title>User&#45;&gt;Comment</title>
<path fill="none" stroke="#ade93e" d="M245.369,-340.029C243.725,-336.395 242.255,-332.713 241,-329 236.172,-314.719 197.845,-364.249 245,-159 247.12,-149.771 250.153,-140.352 253.649,-131.189"/>
<ellipse fill="none" stroke="#ade93e" cx="247.222" cy="-343.823" rx="4.00002" ry="4.00002"/>
<polygon fill="#ade93e" stroke="#ade93e" points="253.712,-131.032 261.615,-123.43 255.576,-126.392 257.44,-121.752 257.44,-121.752 257.44,-121.752 255.576,-126.392 253.264,-120.075 253.712,-131.032 253.712,-131.032"/>
</g>
<!-- Relationship -->
<g id="node5" class="node"><title>Relationship</title>
<path fill="none" stroke="black" d="M266.5,-174.5C266.5,-174.5 373.5,-174.5 373.5,-174.5 379.5,-174.5 385.5,-180.5 385.5,-186.5 385.5,-186.5 385.5,-268.5 385.5,-268.5 385.5,-274.5 379.5,-280.5 373.5,-280.5 373.5,-280.5 266.5,-280.5 266.5,-280.5 260.5,-280.5 254.5,-274.5 254.5,-268.5 254.5,-268.5 254.5,-186.5 254.5,-186.5 254.5,-180.5 260.5,-174.5 266.5,-174.5"/>
<text text-anchor="middle" x="320" y="-265.3" font-family="Times,serif" font-size="14.00">Relationship</text>
<polyline fill="none" stroke="black" points="254.5,-257.5 385.5,-257.5 "/>
<text text-anchor="start" x="262.5" y="-242.3" font-family="Times,serif" font-size="14.00">id :INTEGER</text>
<text text-anchor="start" x="262.5" y="-227.3" font-family="Times,serif" font-size="14.00">follower_id :integer</text>
<text text-anchor="start" x="262.5" y="-212.3" font-family="Times,serif" font-size="14.00">followed_id :integer</text>
<text text-anchor="start" x="262.5" y="-197.3" font-family="Times,serif" font-size="14.00">created_at :datetime</text>
<text text-anchor="start" x="262.5" y="-182.3" font-family="Times,serif" font-size="14.00">updated_at :datetime</text>
</g>
<!-- User&#45;&gt;Relationship -->
<g id="edge2" class="edge"><title>User&#45;&gt;Relationship</title>
<path fill="none" stroke="#a642c5" d="M244.93,-339.419C243.446,-331.035 243.872,-322.48 247,-314 250.174,-305.393 254.644,-297.065 259.826,-289.203"/>
<ellipse fill="none" stroke="#a642c5" cx="245.948" cy="-343.516" rx="4.00001" ry="4.00001"/>
<polygon fill="#a642c5" stroke="#a642c5" points="259.941,-289.038 269.379,-283.455 262.821,-284.951 265.701,-280.863 265.701,-280.863 265.701,-280.863 262.821,-284.951 262.022,-278.272 259.941,-289.038 259.941,-289.038"/>
<text text-anchor="middle" x="301.5" y="-317.8" font-family="Times,serif" font-size="14.00">active_relationships</text>
</g>
<!-- User&#45;&gt;Relationship -->
<g id="edge3" class="edge"><title>User&#45;&gt;Relationship</title>
<path fill="none" stroke="#5196cd" d="M353.203,-339.624C354.266,-336.076 355.208,-332.526 356,-329 358.865,-316.247 357.419,-302.894 353.82,-290.239"/>
<ellipse fill="none" stroke="#5196cd" cx="351.926" cy="-343.571" rx="4.00001" ry="4.00001"/>
<polygon fill="#5196cd" stroke="#5196cd" points="353.813,-290.216 354.958,-279.311 352.249,-285.467 350.684,-280.718 350.684,-280.718 350.684,-280.718 352.249,-285.467 346.41,-282.126 353.813,-290.216 353.813,-290.216"/>
<text text-anchor="middle" x="415" y="-317.8" font-family="Times,serif" font-size="14.00">passive_relationships</text>
</g>
<!-- Newspost -->
<g id="node6" class="node"><title>Newspost</title>
<path fill="none" stroke="black" d="M441.5,-159.5C441.5,-159.5 548.5,-159.5 548.5,-159.5 554.5,-159.5 560.5,-165.5 560.5,-171.5 560.5,-171.5 560.5,-283.5 560.5,-283.5 560.5,-289.5 554.5,-295.5 548.5,-295.5 548.5,-295.5 441.5,-295.5 441.5,-295.5 435.5,-295.5 429.5,-289.5 429.5,-283.5 429.5,-283.5 429.5,-171.5 429.5,-171.5 429.5,-165.5 435.5,-159.5 441.5,-159.5"/>
<text text-anchor="middle" x="495" y="-280.3" font-family="Times,serif" font-size="14.00">Newspost</text>
<polyline fill="none" stroke="black" points="429.5,-272.5 560.5,-272.5 "/>
<text text-anchor="start" x="437.5" y="-257.3" font-family="Times,serif" font-size="14.00">id :INTEGER</text>
<text text-anchor="start" x="437.5" y="-242.3" font-family="Times,serif" font-size="14.00">content :text</text>
<text text-anchor="start" x="437.5" y="-227.3" font-family="Times,serif" font-size="14.00">user_id :integer</text>
<text text-anchor="start" x="437.5" y="-212.3" font-family="Times,serif" font-size="14.00">created_at :datetime</text>
<text text-anchor="start" x="437.5" y="-197.3" font-family="Times,serif" font-size="14.00">updated_at :datetime</text>
<text text-anchor="start" x="437.5" y="-182.3" font-family="Times,serif" font-size="14.00">picture :varchar</text>
<text text-anchor="start" x="437.5" y="-167.3" font-family="Times,serif" font-size="14.00">title :varchar</text>
</g>
<!-- User&#45;&gt;Newspost -->
<g id="edge1" class="edge"><title>User&#45;&gt;Newspost</title>
<path fill="none" stroke="#63c700" d="M399.515,-390.565C428.338,-376.062 457.872,-355.942 477,-329 482.07,-321.859 485.853,-313.731 488.658,-305.263"/>
<ellipse fill="none" stroke="#63c700" cx="395.804" cy="-392.377" rx="4.00002" ry="4.00002"/>
<polygon fill="#63c700" stroke="#63c700" points="488.674,-305.207 495.751,-296.831 490.049,-300.4 491.425,-295.593 491.425,-295.593 491.425,-295.593 490.049,-300.4 487.098,-294.355 488.674,-305.207 488.674,-305.207"/>
</g>
<!-- ApplicationRecord -->
<g id="node3" class="node"><title>ApplicationRecord</title>
<ellipse fill="none" stroke="black" cx="628" cy="-423" rx="77.1866" ry="18"/>
<text text-anchor="middle" x="628" y="-419.3" font-family="Times,serif" font-size="14.00">ApplicationRecord</text>
</g>
<!-- Newspost&#45;&gt;Comment -->
<g id="edge7" class="edge"><title>Newspost&#45;&gt;Comment</title>
<path fill="none" stroke="#f6b0e6" d="M422.773,-168.824C403.346,-153.31 382.31,-136.512 362.798,-120.931"/>
<ellipse fill="none" stroke="#f6b0e6" cx="426.128" cy="-171.503" rx="4.00002" ry="4.00002"/>
<polygon fill="#f6b0e6" stroke="#f6b0e6" points="362.642,-120.807 357.636,-111.05 358.735,-117.687 354.828,-114.567 354.828,-114.567 354.828,-114.567 358.735,-117.687 352.02,-118.083 362.642,-120.807 362.642,-120.807"/>
</g>
</g>
</svg>
