<?xml version="1.0" encoding="UTF-8" standalone="no"?>
<!DOCTYPE svg PUBLIC "-//W3C//DTD SVG 1.1//EN"
 "http://www.w3.org/Graphics/SVG/1.1/DTD/svg11.dtd">
<!-- Generated by graphviz version 2.38.0 (20140413.2041)
 -->
<!-- Title: models_diagram Pages: 1 -->
<svg width="608pt" height="246pt"
 viewBox="0.00 0.00 608.34 246.00" xmlns="http://www.w3.org/2000/svg" xmlns:xlink="http://www.w3.org/1999/xlink">
<g id="graph0" class="graph" transform="scale(1 1) rotate(0) translate(4 242)">
<title>models_diagram</title>
<polygon fill="none" stroke="none" points="-4,4 -4,-242 604.343,-242 604.343,4 -4,4"/>
<!-- _diagram_info -->
<g id="node1" class="node"><title>_diagram_info</title>
<text text-anchor="start" x="8" y="-223.6" font-family="Times,serif" font-size="13.00">Models diagram</text>
<text text-anchor="start" x="8" y="-209.6" font-family="Times,serif" font-size="13.00">Date: Jun 22 2017 &#45; 14:36</text>
<text text-anchor="start" x="8" y="-195.6" font-family="Times,serif" font-size="13.00">Migration version: 20170622031049</text>
<text text-anchor="start" x="8" y="-181.6" font-family="Times,serif" font-size="13.00">Generated by RailRoady 1.5.3</text>
<text text-anchor="start" x="8" y="-167.6" font-family="Times,serif" font-size="13.00">http://railroady.prestonlee.com</text>
</g>
<!-- User -->
<g id="node2" class="node"><title>User</title>
<ellipse fill="none" stroke="black" cx="259" cy="-199" rx="27.0966" ry="18"/>
<text text-anchor="middle" x="259" y="-195.3" font-family="Times,serif" font-size="14.00">User</text>
</g>
<!-- User&#45;&gt;User -->
<g id="edge4" class="edge"><title>User&#45;&gt;User</title>
<path fill="none" stroke="#87e33e" d="M295.359,-204.426C300.696,-203.571 304.298,-201.763 304.298,-199 304.298,-196.237 300.696,-194.429 295.359,-193.574"/>
<polygon fill="#87e33e" stroke="#87e33e" points="295.054,-204.442 284.833,-200.47 290.061,-204.703 285.067,-204.963 285.067,-204.963 285.067,-204.963 290.061,-204.703 285.302,-209.457 295.054,-204.442 295.054,-204.442"/>
<polygon fill="#87e33e" stroke="#87e33e" points="295.054,-193.558 285.302,-188.543 290.061,-193.297 285.067,-193.037 285.067,-193.037 285.067,-193.037 290.061,-193.297 284.833,-197.53 295.054,-193.558 295.054,-193.558"/>
<text text-anchor="middle" x="330.798" y="-195.3" font-family="Times,serif" font-size="14.00">following</text>
</g>
<!-- User&#45;&gt;User -->
<g id="edge5" class="edge"><title>User&#45;&gt;User</title>
<path fill="none" stroke="#c7c106" d="M292.852,-209.54C322.187,-213.304 357.298,-209.79 357.298,-199 357.298,-188.21 322.187,-184.696 292.852,-188.46"/>
<polygon fill="#c7c106" stroke="#c7c106" points="292.654,-209.508 283.504,-203.464 287.718,-208.707 282.783,-207.906 282.783,-207.906 282.783,-207.906 287.718,-208.707 282.062,-212.347 292.654,-209.508 292.654,-209.508"/>
<polygon fill="#c7c106" stroke="#c7c106" points="292.654,-188.492 282.062,-185.653 287.718,-189.293 282.783,-190.094 282.783,-190.094 282.783,-190.094 287.718,-189.293 283.504,-194.536 292.654,-188.492 292.654,-188.492"/>
<text text-anchor="middle" x="383.298" y="-195.3" font-family="Times,serif" font-size="14.00">followers</text>
</g>
<!-- Comment -->
<g id="node4" class="node"><title>Comment</title>
<ellipse fill="none" stroke="black" cx="234" cy="-18" rx="46.2923" ry="18"/>
<text text-anchor="middle" x="234" y="-14.3" font-family="Times,serif" font-size="14.00">Comment</text>
</g>
<!-- User&#45;&gt;Comment -->
<g id="edge6" class="edge"><title>User&#45;&gt;Comment</title>
<path fill="none" stroke="#e3bd3f" d="M241.125,-176.609C235.667,-170.807 229.406,-164.806 223,-160 209.009,-149.502 197.111,-156.932 188,-142 168.688,-110.352 192.472,-69.2797 212.394,-43.5262"/>
<ellipse fill="none" stroke="#e3bd3f" cx="244.014" cy="-179.798" rx="4.00002" ry="4.00002"/>
<polygon fill="#e3bd3f" stroke="#e3bd3f" points="212.657,-43.2 222.437,-38.2401 215.796,-39.3077 218.934,-35.4155 218.934,-35.4155 218.934,-35.4155 215.796,-39.3077 215.431,-32.5908 212.657,-43.2 212.657,-43.2"/>
</g>
<!-- Relationship -->
<g id="node5" class="node"><title>Relationship</title>
<ellipse fill="none" stroke="black" cx="266" cy="-91" rx="55.4913" ry="18"/>
<text text-anchor="middle" x="266" y="-87.3" font-family="Times,serif" font-size="14.00">Relationship</text>
</g>
<!-- User&#45;&gt;Relationship -->
<g id="edge2" class="edge"><title>User&#45;&gt;Relationship</title>
<path fill="none" stroke="#e74fd6" d="M240.595,-176.647C235.2,-170.937 229.104,-164.976 223,-160 211.242,-150.415 201.374,-155.257 194,-142 190.759,-136.174 190.464,-132.651 194,-127 199.144,-118.78 206.831,-112.441 215.294,-107.568"/>
<ellipse fill="none" stroke="#e74fd6" cx="243.435" cy="-179.739" rx="4.00002" ry="4.00002"/>
<polygon fill="#e74fd6" stroke="#e74fd6" points="215.396,-107.517 226.351,-107.019 219.858,-105.26 224.32,-103.004 224.32,-103.004 224.32,-103.004 219.858,-105.26 222.289,-98.988 215.396,-107.517 215.396,-107.517"/>
<text text-anchor="middle" x="248.5" y="-130.8" font-family="Times,serif" font-size="14.00">active_relationships</text>
</g>
<!-- User&#45;&gt;Relationship -->
<g id="edge3" class="edge"><title>User&#45;&gt;Relationship</title>
<path fill="none" stroke="#5269bd" d="M280.147,-177.938C289.027,-168.069 298.359,-155.42 303,-142 305.179,-135.7 305.636,-133.123 303,-127 301.181,-122.774 298.572,-118.821 295.571,-115.203"/>
<ellipse fill="none" stroke="#5269bd" cx="277.174" cy="-181.092" rx="4.00002" ry="4.00002"/>
<polygon fill="#5269bd" stroke="#5269bd" points="295.442,-115.068 291.777,-104.732 291.984,-111.456 288.526,-107.844 288.526,-107.844 288.526,-107.844 291.984,-111.456 285.276,-110.956 295.442,-115.068 295.442,-115.068"/>
<text text-anchor="middle" x="363" y="-130.8" font-family="Times,serif" font-size="14.00">passive_relationships</text>
</g>
<!-- Newspost -->
<g id="node6" class="node"><title>Newspost</title>
<ellipse fill="none" stroke="black" cx="432" cy="-91" rx="45.4919" ry="18"/>
<text text-anchor="middle" x="432" y="-87.3" font-family="Times,serif" font-size="14.00">Newspost</text>
</g>
<!-- User&#45;&gt;Newspost -->
<g id="edge1" class="edge"><title>User&#45;&gt;Newspost</title>
<path fill="none" stroke="#6b580b" d="M294.534,-196.48C332.917,-192.8 392.874,-180.746 425,-142 430.213,-135.713 432.558,-127.38 433.433,-119.322"/>
<ellipse fill="none" stroke="#6b580b" cx="290.203" cy="-196.844" rx="4" ry="4"/>
<polygon fill="#6b580b" stroke="#6b580b" points="433.443,-119.075 438.35,-109.268 433.649,-114.079 433.854,-109.083 433.854,-109.083 433.854,-109.083 433.649,-114.079 429.358,-108.898 433.443,-119.075 433.443,-119.075"/>
</g>
<!-- ApplicationRecord -->
<g id="node3" class="node"><title>ApplicationRecord</title>
<ellipse fill="none" stroke="black" cx="523" cy="-199" rx="77.1866" ry="18"/>
<text text-anchor="middle" x="523" y="-195.3" font-family="Times,serif" font-size="14.00">ApplicationRecord</text>
</g>
<!-- Newspost&#45;&gt;Comment -->
<g id="edge7" class="edge"><title>Newspost&#45;&gt;Comment</title>
<path fill="none" stroke="#d5a614" d="M391.711,-75.5531C358.17,-63.5256 310.551,-46.4501 276.428,-34.2142"/>
<ellipse fill="none" stroke="#d5a614" cx="395.539" cy="-76.9256" rx="4.00001" ry="4.00001"/>
<polygon fill="#d5a614" stroke="#d5a614" points="276.157,-34.1171 268.263,-26.5057 271.451,-32.4294 266.744,-30.7416 266.744,-30.7416 266.744,-30.7416 271.451,-32.4294 265.225,-34.9775 276.157,-34.1171 276.157,-34.1171"/>
</g>
</g>
</svg>
